<?xml version="1.0" encoding="UTF-8"?> <svg xmlns="http://www.w3.org/2000/svg" width="253" height="72" viewBox="0 0 253 72" fill="none"><g clip-path="url(#clip0)"><path d="M64.676 42.4863L63.2342 48.7322C63.1656 49.0068 63.0969 49.2127 63.0969 49.4872C63.0969 49.7618 63.2342 50.0363 63.5089 50.2422C63.7835 50.4481 64.0581 50.5854 64.3327 50.5854L64.1268 51.3404H54.5148C53.7596 51.3404 53.3477 50.9286 53.3477 50.1736C53.3477 50.0363 53.3477 49.8304 53.4163 49.6245L58.0163 29.8571C58.0163 29.5826 57.879 29.3766 57.673 29.1021C57.4671 28.8962 57.1924 28.7589 56.9865 28.7589L57.1924 28.0039H74.3566L73.4641 31.7789C73.3268 32.2594 73.0521 32.6712 72.7089 32.9458C72.2969 33.2203 71.885 33.4262 71.3357 33.4262H66.6671L65.9118 36.7208H72.1596L71.473 39.6035C71.3357 40.084 71.1297 40.4958 70.7178 40.7704C70.3059 41.0449 69.8939 41.1822 69.3447 41.1822H66.7357C65.5686 41.1822 64.882 41.6626 64.676 42.4863Z" fill="#AD8A30"></path><path d="M94.5399 51.3397H85.8205C85.2026 51.3397 84.7907 51.2711 84.516 51.0652C84.2414 50.8593 84.1041 50.5161 84.0354 50.0356L83.7608 46.6038H79.8474L78.4742 49.3493C78.4056 49.4179 78.4056 49.6238 78.4056 49.7611C78.4056 49.967 78.4742 50.1043 78.6802 50.3102C78.8862 50.4474 79.0921 50.5161 79.3668 50.5161L79.2295 51.2711H71.8832C71.4713 51.2711 71.128 51.1338 70.8533 50.9279C70.5787 50.722 70.4414 50.4474 70.4414 50.1043C70.4414 49.8984 70.5101 49.6924 70.5787 49.4865L80.5339 30.1996C80.6026 30.0623 80.6713 29.925 80.6713 29.7191C80.6713 29.5132 80.5339 29.2387 80.328 29.0328C80.122 28.8268 79.8474 28.6896 79.6414 28.6896L79.8474 27.9346H89.9399C90.4205 27.9346 90.9011 28.0718 91.2444 28.3464C91.5877 28.6209 91.7936 29.0328 91.7936 29.5132L93.3727 49.2806C93.3727 49.5552 93.5787 49.8297 93.8533 50.1043C94.1966 50.3788 94.4712 50.4474 94.8145 50.4474L94.5399 51.3397ZM83.4862 38.2301L81.8384 42.0051H83.7608L83.4862 38.2301Z" fill="#AD8A30"></path><path d="M113.905 41.7992L115.072 44.8879C115.484 45.5742 115.964 45.8488 116.651 45.8488H117.612L116.788 49.6924C116.582 50.722 115.758 51.2711 114.385 51.2711H109.854C109.305 51.2711 108.756 51.1338 108.344 50.7906C107.932 50.5161 107.657 50.1043 107.52 49.6924L105.529 42.8288L104.087 49.4179C104.087 49.4865 104.087 49.6238 104.087 49.7611C104.087 50.3102 104.43 50.5161 105.117 50.5161L104.911 51.2711H95.5734C94.8182 51.2711 94.4062 50.8593 94.4062 50.1042C94.4062 49.967 94.4063 49.8297 94.4749 49.5552L99.0749 29.7878C99.0749 29.5132 98.9376 29.3073 98.7316 29.0328C98.5257 28.8268 98.251 28.6896 98.0451 28.6896L98.251 27.9346H113.905C117.406 27.9346 119.191 29.5819 119.191 32.8764C119.191 33.4255 119.123 34.2492 118.917 35.416C118.505 37.4064 117.887 38.9165 117.132 39.8774C116.308 40.8383 115.278 41.456 113.905 41.7992ZM107.863 33.2196L106.902 37.4064H108.206C108.961 37.4064 109.511 36.7887 109.785 35.4846C109.923 34.7982 109.991 34.3864 109.991 34.1805C109.991 33.5628 109.717 33.2196 109.167 33.2196H107.863Z" fill="#AD8A30"></path><path d="M125.301 51.3397H118.092C117.612 51.3397 117.269 51.2025 116.994 50.9965C116.719 50.7906 116.582 50.5161 116.582 50.1729C116.582 49.8983 116.651 49.6238 116.719 49.4179L124.409 30.4055C124.478 30.1996 124.546 29.9937 124.546 29.7878C124.546 29.5132 124.478 29.2387 124.272 29.0328C124.066 28.8268 123.86 28.6896 123.585 28.6896L123.722 27.9346H132.854C133.197 27.9346 133.54 28.0718 133.815 28.2778C134.089 28.4837 134.227 28.7582 134.227 29.17L134.433 37.3378L137.385 30.1996C137.454 29.9937 137.522 29.7878 137.522 29.5819C137.522 29.3073 137.454 29.1014 137.316 28.9641C137.179 28.8268 136.973 28.7582 136.698 28.7582L136.904 28.0032H146.242C146.654 28.0032 146.997 28.1405 147.203 28.4837C147.478 28.8268 147.615 29.2387 147.615 29.6505L148.713 49.4865C148.713 49.8297 148.919 50.0356 149.194 50.2415C149.537 50.4474 149.812 50.5161 150.155 50.5161L150.018 51.2711H140.749C140.475 51.2711 140.131 51.1338 139.925 50.8593C139.651 50.5847 139.513 50.3102 139.513 49.967L139.582 40.9756L135.669 51.2711H127.636L127.43 41.0442L124.34 49.0061C124.272 49.0747 124.272 49.2806 124.272 49.4865C124.272 49.7611 124.409 50.0356 124.615 50.1729C124.889 50.3788 125.095 50.4474 125.37 50.4474L125.301 51.3397Z" fill="#AD8A30"></path><path d="M171.848 51.3397H163.129C162.511 51.3397 162.099 51.2711 161.825 51.0652C161.55 50.8593 161.413 50.5161 161.344 50.0356L161.069 46.6038H157.156L155.783 49.3493C155.714 49.4179 155.714 49.6238 155.714 49.7611C155.714 49.967 155.783 50.1043 155.989 50.3102C156.195 50.4474 156.401 50.5161 156.675 50.5161L156.538 51.2711H149.192C148.78 51.2711 148.437 51.1338 148.162 50.9279C147.887 50.722 147.75 50.4474 147.75 50.1043C147.75 49.8984 147.819 49.6924 147.887 49.4865L157.843 30.1996C157.911 30.0623 157.98 29.925 157.98 29.7191C157.98 29.5132 157.843 29.2387 157.637 29.0328C157.431 28.8268 157.156 28.6896 156.95 28.6896L157.156 27.9346H167.248C167.729 27.9346 168.21 28.0718 168.553 28.3464C168.896 28.6209 169.102 29.0328 169.102 29.5132L170.681 49.2806C170.681 49.5552 170.887 49.8297 171.162 50.1043C171.505 50.3788 171.78 50.4474 172.123 50.4474L171.848 51.3397ZM160.795 38.2301L159.147 42.0051H161.069L160.795 38.2301Z" fill="#AD8A30"></path><path d="M180.569 27.9346H191.966C191.898 29.1014 191.76 30.0623 191.554 30.8173C191.349 31.5723 191.005 32.2587 190.525 32.6705C190.044 33.151 189.357 33.3569 188.534 33.3569H184.689C184.208 33.3569 183.934 33.4255 183.659 33.6314C183.453 33.8373 183.316 34.1119 183.316 34.3864C183.316 34.7982 183.522 35.2101 184.002 35.6219L187.641 38.7792C189.357 40.2206 190.181 41.6619 190.181 43.2406C190.181 43.7897 190.113 44.2015 189.975 44.6133L189.289 47.5647C189.083 48.3883 188.808 49.0747 188.465 49.6238C188.122 50.1729 187.572 50.5847 186.954 50.8593C186.268 51.1338 185.444 51.2711 184.414 51.2711L173.978 51.2024C172.193 51.2024 171.301 50.5161 171.301 49.1433C171.301 48.8001 171.369 48.457 171.438 48.1138L172.331 44.2015H173.017C173.017 44.5447 173.223 44.8879 173.498 45.1624C173.772 45.437 174.116 45.5742 174.459 45.5742H179.952C180.501 45.5742 180.844 45.231 180.844 44.6133C180.844 44.2015 180.707 43.9269 180.432 43.721L176.244 40.1519C175.558 39.6028 175.077 39.0537 174.802 38.5046C174.528 37.9555 174.39 37.3378 174.39 36.5142C174.39 35.6905 174.596 34.4551 174.94 32.6705C175.283 31.0919 175.832 29.925 176.725 29.0328C177.686 28.415 178.922 27.9346 180.569 27.9346Z" fill="#AD8A30"></path><path d="M201.508 27.9346H207.962C209.266 27.9346 210.433 28.1405 211.463 28.6209C212.493 29.1014 213.317 29.7191 213.935 30.6114C214.553 31.5037 214.827 32.5332 214.827 33.7687C214.827 34.3864 214.759 35.0728 214.621 35.7592L212.562 44.3388C212.15 46.0547 211.6 47.4274 210.845 48.457C210.09 49.4865 209.197 50.1729 208.099 50.5847C207 50.9965 205.765 51.2024 204.323 51.2024H197.388C193.2 51.2024 191.141 49.2806 191.141 45.5056C191.141 44.4074 191.278 43.3092 191.553 42.0737L193.063 35.6905C193.406 34.1119 193.956 32.7391 194.573 31.5723C195.191 30.4055 196.084 29.5132 197.251 28.8955C198.35 28.2778 199.791 27.9346 201.508 27.9346ZM202.812 34.7296L200.615 44.0642C200.547 44.3388 200.547 44.6133 200.547 44.8192C200.547 45.3683 200.89 45.7115 201.508 45.7115C201.92 45.7115 202.263 45.6429 202.469 45.437C202.675 45.231 202.881 44.8879 202.95 44.4074L205.147 34.9355C205.215 34.7296 205.215 34.5237 205.215 34.3864C205.215 33.7001 204.872 33.4255 204.254 33.4255C203.842 33.4255 203.499 33.5628 203.293 33.7687C203.156 33.906 202.95 34.2492 202.812 34.7296Z" fill="#AD8A30"></path><path d="M224.922 42.486L223.48 48.8006C223.412 49.0751 223.343 49.281 223.343 49.5556C223.343 49.8301 223.48 50.1047 223.755 50.3106C224.03 50.5165 224.304 50.6538 224.579 50.6538L224.373 51.4088H214.761C214.006 51.4088 213.594 50.997 213.594 50.2419C213.594 50.1047 213.594 49.8988 213.662 49.6929L218.262 29.9255C218.262 29.6509 218.125 29.445 217.919 29.1705C217.713 28.9645 217.439 28.8273 217.233 28.8273L217.439 28.0723H234.603L233.71 31.8473C233.573 32.3277 233.298 32.7396 232.955 33.0141C232.543 33.2887 232.131 33.4946 231.582 33.4946H226.913L226.158 36.7891H232.406L231.719 39.6719C231.582 40.1523 231.376 40.5642 230.964 40.8387C230.552 41.1133 230.14 41.2505 229.591 41.2505H226.982C225.883 41.1819 225.128 41.6624 224.922 42.486Z" fill="#AD8A30"></path><path d="M236.662 27.935H250.531C250.874 27.935 251.217 27.8663 251.561 27.7291C251.904 27.5918 252.11 27.3859 252.179 27.1113H252.934L251.561 32.3277C251.423 32.7395 251.217 33.0141 250.943 33.1514C250.599 33.2886 250.188 33.4259 249.57 33.4259H247.579L243.802 49.5556C243.802 49.8301 243.94 50.036 244.146 50.2419C244.352 50.4478 244.626 50.5851 244.832 50.5851L244.626 51.3401H235.22C234.465 51.3401 234.122 50.9969 234.122 50.3106C234.122 50.1733 234.122 50.036 234.19 49.7615L238.035 33.4259H235.701C235.014 33.4259 234.534 33.7005 234.328 34.3182H233.504L234.877 28.8959C234.946 28.5527 235.152 28.3468 235.426 28.2095C235.632 28.0722 236.113 27.935 236.662 27.935Z" fill="#AD8A30"></path><path d="M17.8044 7.03114L9.45312 17.4053L12.0742 19.514L20.4254 9.13986L17.8044 7.03114Z" fill="#567F3A"></path><path d="M18.6306 50.144L16 63.1973L19.2979 63.8615L21.9285 50.8083L18.6306 50.144Z" fill="#567F3A"></path><path d="M12.1363 26.4109L9.23438 28.1123L15.9727 39.5983L18.8746 37.8968L12.1363 26.4109Z" fill="#567F3A"></path><path d="M38.5842 40.2162L25.3008 41.2002L25.5494 44.5543L38.8328 43.5703L38.5842 40.2162Z" fill="#567F3A"></path><path d="M26.9818 5.55958C26.9818 8.64824 24.5101 11.1192 21.4206 11.1192C18.331 11.1192 15.8594 8.64824 15.8594 5.55958C15.8594 2.47093 18.331 0 21.4206 0C24.5101 0 26.9818 2.47093 26.9818 5.55958Z" fill="#567F3A"></path><path d="M47.4409 41.3881C47.4409 45.4377 44.1454 48.7322 40.0946 48.7322C36.0439 48.7322 32.6797 45.4377 32.6797 41.3881C32.6797 37.3385 35.9752 34.0439 40.0946 34.0439C44.1454 34.0439 47.4409 37.3385 47.4409 41.3881Z" fill="#567F3A"></path><path d="M31.3058 43.5842C31.3058 49.0751 26.8431 53.5365 21.3505 53.5365C15.858 53.5365 11.3953 49.0751 11.3953 43.5842C11.3267 38.0932 15.7893 33.6318 21.2819 33.6318C26.8431 33.6318 31.3058 38.0932 31.3058 43.5842Z" fill="#567F3A"></path><path d="M22.5208 66.5088C22.5208 69.5975 20.0492 72.0684 16.9596 72.0684C13.8701 72.0684 11.3984 69.5975 11.3984 66.5088C11.3984 63.4201 13.8701 60.9492 16.9596 60.9492C20.0492 60.9492 22.5208 63.4201 22.5208 66.5088Z" fill="#567F3A"></path><path d="M16.203 22.9937C16.203 27.4551 12.5642 31.0928 8.10149 31.0928C3.63881 31.0928 0 27.4551 0 22.9937C0 18.5323 3.63881 14.8945 8.10149 14.8945C12.5642 14.8945 16.203 18.5323 16.203 22.9937Z" fill="#AD8A30"></path></g><defs><clipPath id="clip0"><rect width="253" height="72" fill="white"></rect></clipPath></defs></svg> 